grf.mot																		
version=1																		
nRows=14
nColumns=31
inDegrees=yes																		
endheader																		
time	ground_force_vx	ground_force_vy	ground_force_vz	ground_force_px	ground_force_py	ground_force_pz	1_ground_force_vx	1_ground_force_vy	1_ground_force_vz	1_ground_force_px	1_ground_force_py	1_ground_force_pz	ground_torque_x	ground_torque_y	ground_torque_z	1_ground_torque_x	1_ground_torque_y	1_ground_torque_z	apo_force_vx	apo_force_vy	apo_force_vz	apo_force_px	apo_force_py	apo_force_pz	1_apo_force_vx	1_apo_force_vy	1_apo_force_vz	1_apo_force_px	1_apo_force_py	1_apo_force_pz	
3.71435000000000	-114.25400000000000	975.06799999999998	-65.20150000000000	0.00909524000000	0.00000000000000	0.07007010000000	0.00000000000000	0.00000000000000	0.00000000000000	0.00000000000000	0.00000000000000	0.00000000000000	0.00000000000000	1.27477000000000	0.00000000000000	0.00000000000000	0.00000000000000	0.00000000000000	-28.53700000000000	-18.83000000000000	0.00000000000000	0.00000000000000	-0.35000000000000	0.00000000000000	32.89900000000000	5.49770000000000	0.00000000000000	0.00000000000000	-0.35000000000000	0.00000000000000	
3.71935000000000	-105.04100000000000	949.98900000000003	-64.15110000000000	0.00149326000000	0.00000000000000	0.07049650000000	0.00000000000000	0.00000000000000	0.00000000000000	0.00000000000000	0.00000000000000	0.00000000000000	0.00000000000000	1.03132000000000	0.00000000000000	0.00000000000000	0.00000000000000	0.00000000000000	-29.09000000000000	-18.61300000000000	0.00000000000000	0.00000000000000	-0.35000000000000	0.00000000000000	33.44400000000000	6.19200000000000	0.00000000000000	0.00000000000000	-0.35000000000000	0.00000000000000	
3.72435000000000	-95.95520000000001	923.57200000000000	-62.93320000000000	-0.00552274000000	0.00000000000000	0.07096230000000	0.00000000000000	0.00000000000000	0.00000000000000	0.00000000000000	0.00000000000000	0.00000000000000	0.00000000000000	0.79588400000000	0.00000000000000	0.00000000000000	0.00000000000000	0.00000000000000	-29.68800000000000	-18.40200000000000	0.00000000000000	0.00000000000000	-0.35000000000000	0.00000000000000	33.95700000000000	6.90550000000000	0.00000000000000	0.00000000000000	-0.35000000000000	0.00000000000000	
3.72935000000000	-87.09350000000001	896.09100000000001	-61.58710000000000	-0.01194830000000	0.00000000000000	0.07145110000000	0.00000000000000	0.00000000000000	0.00000000000000	0.00000000000000	0.00000000000000	0.00000000000000	0.00000000000000	0.57295600000000	0.00000000000000	0.00000000000000	0.00000000000000	0.00000000000000	-30.29100000000000	-18.17300000000000	0.00000000000000	0.00000000000000	-0.35000000000000	0.00000000000000	34.39900000000000	7.62810000000000	0.00000000000000	0.00000000000000	-0.35000000000000	0.00000000000000	
3.73435000000000	-78.54060000000000	867.81799999999998	-60.14800000000000	-0.01779380000000	0.00000000000000	0.07194610000000	0.00000000000000	0.00000000000000	0.00000000000000	0.00000000000000	0.00000000000000	0.00000000000000	0.00000000000000	0.36655300000000	0.00000000000000	0.00000000000000	0.00000000000000	0.00000000000000	-30.84900000000000	-17.89700000000000	0.00000000000000	0.00000000000000	-0.35000000000000	0.00000000000000	34.71800000000000	8.34460000000000	0.00000000000000	0.00000000000000	-0.35000000000000	0.00000000000000	
3.73935000000000	-70.36830000000001	839.02599999999995	-58.64660000000000	-0.02308340000000	0.00000000000000	0.07243130000000	0.00000000000000	0.00000000000000	0.00000000000000	0.00000000000000	0.00000000000000	0.00000000000000	0.00000000000000	0.18011900000000	0.00000000000000	0.00000000000000	0.00000000000000	0.00000000000000	-31.30500000000000	-17.54600000000000	0.00000000000000	0.00000000000000	-0.35000000000000	0.00000000000000	34.86000000000000	9.03440000000000	0.00000000000000	0.00000000000000	-0.35000000000000	0.00000000000000	
3.74435000000000	-62.63490000000000	809.97900000000004	-57.10870000000000	-0.02785360000000	0.00000000000000	0.07289150000000	0.00000000000000	0.00000000000000	0.00000000000000	0.00000000000000	0.00000000000000	0.00000000000000	0.00000000000000	0.01647600000000	0.00000000000000	0.00000000000000	0.00000000000000	0.00000000000000	-31.59800000000000	-17.09500000000000	0.00000000000000	0.00000000000000	-0.35000000000000	0.00000000000000	34.77200000000000	9.67340000000000	0.00000000000000	0.00000000000000	-0.35000000000000	0.00000000000000	
3.74935000000000	-55.38510000000000	780.93700000000001	-55.55510000000000	-0.03215170000000	0.00000000000000	0.07331310000000	0.00000000000000	0.00000000000000	0.00000000000000	0.00000000000000	0.00000000000000	0.00000000000000	0.00000000000000	-0.12220700000000	0.00000000000000	0.00000000000000	0.00000000000000	0.00000000000000	-31.52300000000000	-16.44800000000000	0.00000000000000	0.00000000000000	-0.35000000000000	0.00000000000000	34.28400000000000	10.19800000000000	0.00000000000000	0.00000000000000	-0.35000000000000	0.00000000000000	
3.75435000000000	-48.64980000000000	752.14499999999998	-54.00160000000000	-0.03603450000000	0.00000000000000	0.07368400000000	2.16593000000000	26.47650000000000	4.58771000000000	0.01508260000000	0.00000000000000	0.00360323000000	0.00000000000000	-0.23443100000000	0.00000000000000	0.00000000000000	0.59960100000000	0.00000000000000	-28.35800000000000	-14.25800000000000	0.00000000000000	0.00000000000000	-0.35000000000000	0.00000000000000	30.15500000000000	9.55710000000000	0.00000000000000	0.00000000000000	-0.35000000000000	0.00000000000000	
3.75935000000000	-42.44670000000000	723.83600000000001	-52.45920000000000	-0.03956590000000	0.00000000000000	0.07399450000000	3.09156000000000	27.16190000000000	4.17278000000000	0.00970676000000	0.00000000000000	0.00306743000000	0.00000000000000	-0.31936100000000	0.00000000000000	0.00000000000000	0.61242300000000	0.00000000000000	-27.30100000000000	-13.21500000000000	0.00000000000000	0.00000000000000	-0.35000000000000	0.00000000000000	28.56200000000000	9.61530000000000	0.00000000000000	0.00000000000000	-0.35000000000000	0.00000000000000	
3.76435000000000	-36.78100000000000	696.23000000000002	-50.93490000000000	-0.04281600000000	0.00000000000000	0.07423700000000	3.81843000000000	26.68450000000000	3.67102000000000	0.00442369000000	0.00000000000000	0.00252975000000	0.00000000000000	-0.37681000000000	0.00000000000000	0.00000000000000	0.60509200000000	0.00000000000000	-26.09800000000000	-12.15100000000000	0.00000000000000	0.00000000000000	-0.35000000000000	0.00000000000000	26.85100000000000	9.57390000000000	0.00000000000000	0.00000000000000	-0.35000000000000	0.00000000000000	
3.76935000000000	-31.64670000000000	669.52599999999995	-49.43190000000000	-0.04585810000000	0.00000000000000	0.07440660000000	4.35509000000000	25.13450000000000	3.10316000000000	-0.00059998500000	0.00000000000000	0.00200197000000	0.00000000000000	-0.40719800000000	0.00000000000000	0.00000000000000	0.57918000000000	0.00000000000000	-24.93200000000000	-11.15500000000000	0.00000000000000	0.00000000000000	-0.35000000000000	0.00000000000000	25.15300000000000	9.47400000000000	0.00000000000000	0.00000000000000	-0.35000000000000	0.00000000000000	
3.77435000000000	-27.02760000000000	643.90599999999995	-47.95030000000000	-0.04876780000000	0.00000000000000	0.07450060000000	0.00000000000000	0.00000000000000	0.00000000000000	0.00000000000000	0.00000000000000	0.00000000000000	0.00000000000000	-0.41150600000000	0.00000000000000	0.00000000000000	0.00000000000000	0.00000000000000	-27.50000000000000	-11.81200000000000	0.00000000000000	0.00000000000000	-0.35000000000000	0.00000000000000	27.70600000000000	10.99700000000000	0.00000000000000	0.00000000000000	-0.35000000000000	0.00000000000000	
3.77935000000000	-22.89910000000000	619.52900000000000	-46.48810000000000	-0.05162070000000	0.00000000000000	0.07451920000000	0.00000000000000	0.00000000000000	0.00000000000000	0.00000000000000	0.00000000000000	0.00000000000000	0.00000000000000	-0.39121100000000	0.00000000000000	0.00000000000000	0.00000000000000	0.00000000000000	-25.79900000000000	-10.62600000000000	0.00000000000000	0.00000000000000	-0.35000000000000	0.00000000000000	25.56300000000000	10.66800000000000	0.00000000000000	0.00000000000000	-0.35000000000000	0.00000000000000	
